<svg width="32" height="14" viewBox="0 0 32 14" fill="none" xmlns="http://www.w3.org/2000/svg">
<path d="M0.328125 13V1H3.5V3.11719H3.64062C3.89063 2.41406 4.30729 1.85937 4.89063 1.45312C5.47396 1.04687 6.17188 0.84375 6.98438 0.84375C7.80729 0.84375 8.50781 1.04948 9.08594 1.46094C9.66406 1.86719 10.0495 2.41927 10.2422 3.11719H10.3672C10.612 2.42969 11.0547 1.88021 11.6953 1.46875C12.3411 1.05208 13.1042 0.84375 13.9844 0.84375C15.1042 0.84375 16.013 1.20052 16.7109 1.91406C17.4141 2.6224 17.7656 3.6276 17.7656 4.92969V13H14.4453V5.58594C14.4453 4.91927 14.2682 4.41927 13.9141 4.08594C13.5599 3.7526 13.1172 3.58594 12.5859 3.58594C11.9818 3.58594 11.5104 3.77865 11.1719 4.16406C10.8333 4.54427 10.6641 5.04687 10.6641 5.67187V13H7.4375V5.51562C7.4375 4.92708 7.26823 4.45833 6.92969 4.10937C6.59635 3.76042 6.15625 3.58594 5.60938 3.58594C5.23958 3.58594 4.90625 3.67969 4.60938 3.86719C4.31771 4.04948 4.08594 4.30729 3.91406 4.64062C3.74219 4.96875 3.65625 5.35417 3.65625 5.79687V13H0.328125ZM25.8633 13.2344C24.6289 13.2344 23.5664 12.9844 22.6758 12.4844C21.7904 11.9792 21.1081 11.2656 20.6289 10.3437C20.1497 9.41667 19.9102 8.32031 19.9102 7.05469C19.9102 5.82031 20.1497 4.73698 20.6289 3.80469C21.1081 2.8724 21.7826 2.14583 22.6523 1.625C23.5273 1.10417 24.5534 0.84375 25.7305 0.84375C26.5221 0.84375 27.2591 0.971354 27.9414 1.22656C28.6289 1.47656 29.2279 1.85417 29.7383 2.35937C30.2539 2.86458 30.6549 3.5 30.9414 4.26562C31.2279 5.02604 31.3711 5.91667 31.3711 6.9375V7.85156H21.2383V5.78906H28.2383C28.2383 5.3099 28.1341 4.88542 27.9258 4.51563C27.7174 4.14583 27.4284 3.85677 27.0586 3.64844C26.694 3.4349 26.2695 3.32812 25.7852 3.32812C25.2799 3.32812 24.832 3.44531 24.4414 3.67969C24.056 3.90885 23.7539 4.21875 23.5352 4.60937C23.3164 4.99479 23.2044 5.42448 23.1992 5.89844V7.85937C23.1992 8.45312 23.3086 8.96615 23.5273 9.39844C23.7513 9.83073 24.0664 10.1641 24.4727 10.3984C24.8789 10.6328 25.3607 10.75 25.918 10.75C26.2878 10.75 26.6263 10.6979 26.9336 10.5938C27.2409 10.4896 27.5039 10.3333 27.7227 10.125C27.9414 9.91667 28.1081 9.66146 28.2227 9.35938L31.3008 9.5625C31.1445 10.3021 30.8242 10.9479 30.3398 11.5C29.8607 12.0469 29.2409 12.474 28.4805 12.7813C27.7253 13.0833 26.8529 13.2344 25.8633 13.2344Z" fill="#89C5CC"/>
</svg>
